# xmcd CD database file
#
# Track frame offsets:
#	150
#	38346
#	72869
#	124779
#	154540
#	195174
#	222102
#
# Disc length: 3531 seconds
#
# Revision: 0
# Processed by: cddbd v1.5.2PL0 Copyright (c) Steve Scherf et al.
# Submitted via: CDex 1.51
#
DISCID=4e0dc907
DTITLE=Twelves Trio - Here Comes The Woodman With His Splintered Soul
DYEAR=2008
DGENRE=Jazz
TTITLE0=Jiggery Pokery
TTITLE1=She Moved Through The Fair
TTITLE2=Earth
TTITLE3=Angel
TTITLE4=Clutter
TTITLE5=How To Stop An Exploding Man
TTITLE6=Flower Song
EXTD=YEAR: 2008
EXTT0=
EXTT1=
EXTT2=
EXTT3=
EXTT4=
EXTT5=
EXTT6=
PLAYORDER=
